<svg xmlns="http://www.w3.org/2000/svg" xmlns:xlink="http://www.w3.org/1999/xlink" width="70" height="70" version="1.1" viewBox="0 0 70 70"><defs><linearGradient id="color-1" x1="70" x2="0" y1="0" y2="70" gradientUnits="userSpaceOnUse"><stop offset="0" stop-color="#ff6c68"/><stop offset="1" stop-color="#e53935"/></linearGradient></defs><g fill="none" fill-rule="nonzero" stroke="none" stroke-dashoffset="0" stroke-linecap="butt" stroke-linejoin="miter" stroke-miterlimit="10" stroke-width="1" font-family="none" font-size="none" font-weight="none" text-anchor="none" style="mix-blend-mode:normal"><path id="box" fill="url(#color-1)" d="M3.5,70c-1.933,0 -3.5,-1.567 -3.5,-3.5v-63c0,-1.933 1.567,-3.5 3.5,-3.5h63c1.933,0 3.5,1.567 3.5,3.5v63c0,1.933 -1.567,3.5 -3.5,3.5z"/><path id="topBoxShadow" fill="#fff" d="M65,1h-61c-1.95033,0 -3.2667,0.63396 -3.9491,1.90189c0.28378,-1.64806 1.72001,-2.90189 3.4491,-2.90189h63c1.72965,0 3.16627,1.25466 3.44938,2.90352c-0.69803,-1.26902 -2.34782,-1.90352 -4.94938,-1.90352z" opacity=".383"/><path id="bottomBoxShadow" fill="#000" d="M4,69h61c2.66667,0 4.33333,-1 5,-3v0.5c0,1.933 -1.567,3.5 -3.5,3.5h-63c-1.933,0 -3.5,-1.567 -3.5,-3.5c0,-0.1611 0,-0.32777 0,-0.5c0.66667,2 2,3 4,3z" opacity=".383"/><path id="shadow" fill="#000" d="M13.87529,28.78201c-0.58398,0.58398 -0.87529,1.32511 -0.87529,2.22354c0,0.80858 0.29203,1.50474 0.876,2.08872l8.62451,8.62451l-3.23437,3.23437c-0.31445,0.31445 -0.47225,0.69644 -0.47225,1.14566c0,0.35937 0.15779,0.69567 0.47225,1.01012l2.15649,2.15649c0.31445,0.31445 0.67359,0.49509 1.07788,0.54001c0.40429,-0.04492 0.76344,-0.22556 1.07788,-0.54001l1.07788,-1.07788l2.15649,2.15649c2.56051,2.56051 5.66073,4.04279 9.29935,4.44708c3.63862,0.31445 6.94019,-0.51666 9.90499,-2.49319l6.67062,6.67062l4.31226,-4.31225l-6.67062,-6.67062c1.97654,-2.9648 2.7855,-6.24424 2.42613,-9.83794c-0.35937,-3.68354 -1.82023,-6.80518 -4.38074,-9.36569l-2.15649,-2.15649l1.0786,-1.0786c0.31445,-0.31445 0.47225,-0.65075 0.47225,-1.01012c0,-0.44921 -0.15779,-0.83121 -0.47225,-1.14566l-2.15649,-2.15649c-0.31445,-0.31445 -0.67359,-0.4494 -1.07788,-0.40448c-0.40429,-0.04492 -0.76344,0.09003 -1.07788,0.40448l-3.23437,3.23437l-8.62451,-8.62451c-0.58398,-0.58398 -1.30298,-0.85316 -2.15649,-0.80824c-0.8535,-0.04492 -1.57251,0.22426 -2.15649,0.80824c-0.58398,0.58398 -0.87529,1.32511 -0.87529,2.22354c0,0.80858 0.29203,1.50474 0.876,2.08872l8.62451,8.62451l-8.62523,8.62523l-8.62451,-8.62451c-0.58398,-0.58398 -1.30298,-0.85316 -2.15649,-0.80824c-0.8535,-0.04492 -1.57251,0.22426 -2.15649,0.80824z" opacity=".3"/><path id="flatShadow" fill="#000" d="M26.81278,13.84453c0.58398,-0.58398 1.30298,-0.85316 2.15649,-0.80824c0.8535,-0.04492 1.57251,0.22426 2.15649,0.80824l8.62451,8.62451l3.23438,-3.23438c0.31444,-0.31444 0.67359,-0.44939 1.07787,-0.40447c0.40429,-0.04492 0.76343,0.09003 1.07788,0.40448l2.15649,2.15649c0.31445,0.31445 0.47225,0.69644 0.47225,1.14566c0,0.35936 -0.15779,0.69566 -0.47223,1.0101l-0.00001,0.00001l-1.0786,1.0786l2.15648,2.15648c2.56051,2.56051 4.02137,5.68215 4.38074,9.36569c0.35937,3.5937 -0.4496,6.87313 -2.42613,9.83794l6.67062,6.67062l-17.34373,17.34373h-36.15627c-1.933,0 -3.5,-1.567 -3.5,-3.5l0,-25.8427l13.87529,-13.87529v0.00001z" opacity=".324"/><path id="icon" fill="#fff" d="M13.87529,26.78201c-0.58398,0.58398 -0.87529,1.32511 -0.87529,2.22354c0,0.80858 0.29203,1.50474 0.876,2.08872l8.62451,8.62451l-3.23437,3.23437c-0.31445,0.31445 -0.47225,0.69644 -0.47225,1.14566c0,0.35937 0.15779,0.69567 0.47225,1.01012l2.15649,2.15649c0.31445,0.31445 0.67359,0.49509 1.07788,0.54001c0.40429,-0.04492 0.76344,-0.22556 1.07788,-0.54001l1.07788,-1.07788l2.15649,2.15649c2.56051,2.56051 5.66073,4.04279 9.29935,4.44708c3.63862,0.31445 6.94019,-0.51666 9.90499,-2.49319l6.67062,6.67062l4.31226,-4.31225l-6.67062,-6.67062c1.97654,-2.9648 2.7855,-6.24424 2.42613,-9.83794c-0.35937,-3.68354 -1.82023,-6.80518 -4.38074,-9.36569l-2.15649,-2.15649l1.0786,-1.0786c0.31445,-0.31445 0.47225,-0.65075 0.47225,-1.01012c0,-0.44921 -0.15779,-0.83121 -0.47225,-1.14566l-2.15649,-2.15649c-0.31445,-0.31445 -0.67359,-0.4494 -1.07788,-0.40448c-0.40429,-0.04492 -0.76344,0.09003 -1.07788,0.40448l-3.23437,3.23437l-8.62451,-8.62451c-0.58398,-0.58398 -1.30298,-0.85316 -2.15649,-0.80824c-0.8535,-0.04492 -1.57251,0.22426 -2.15649,0.80824c-0.58398,0.58398 -0.87529,1.32511 -0.87529,2.22354c0,0.80858 0.29203,1.50474 0.876,2.08872l8.62451,8.62451l-8.62523,8.62523l-8.62451,-8.62451c-0.58398,-0.58398 -1.30298,-0.85316 -2.15649,-0.80824c-0.8535,-0.04492 -1.57251,0.22426 -2.15649,0.80824z"/></g></svg>