<svg xmlns="http://www.w3.org/2000/svg" xmlns:svg="http://www.w3.org/2000/svg" xmlns:xlink="http://www.w3.org/1999/xlink" id="Capa_1" width="250" height="250" x="0" y="0" version="1.1" viewBox="0 0 250 250" xml:space="preserve"><metadata id="metadata41"/><defs id="defs39"><linearGradient id="linearGradient4607"><stop style="stop-color:#9b4e65;stop-opacity:1" id="stop4603" offset="0"/><stop style="stop-color:#9b4e65;stop-opacity:0" id="stop4605" offset="1"/></linearGradient><path id="icon-a" d="m 4,0 h 61 c 4,0 5,1 5,5 v 60 c 0,4 -1,5 -5,5 H 4 C 1,70 0,69 0,65 V 5 C 0,1 1,0 4,0 Z"/><linearGradient id="icon-c" x1="1" x2="0" y1="0" y2="1"><stop id="stop3747" offset="0%" stop-color="#CD7690"/><stop id="stop3749" offset="100%" stop-color="#CA5377"/></linearGradient><path id="icon-a-3" d="m 4,0 h 61 c 4,0 5,1 5,5 v 60 c 0,4 -1,5 -5,5 H 4 C 1,70 0,69 0,65 V 5 C 0,1 1,0 4,0 Z"/><path id="a" d="m 4,0 h 61 c 4,0 5,1 5,5 v 60 c 0,4 -1,5 -5,5 H 4 C 1,70 0,69 0,65 V 5 C 0,1 1,0 4,0 Z"/><linearGradient id="c" x1="1" x2="0" y1="0" y2="1"><stop id="stop3838" offset="0%" stop-color="#B06161"/><stop id="stop3840" offset="45.785%" stop-color="#984E4E"/><stop id="stop3842" offset="100%" stop-color="#7C3838"/></linearGradient><radialGradient id="radialGradient4609" cx="29.402" cy="40.939" r="29.402" fx="29.402" fy="40.939" gradientTransform="matrix(1,0,0,0.98840836,0,0.47455472)" gradientUnits="userSpaceOnUse" xlink:href="#linearGradient4607"/></defs><rect style="opacity:1;fill:#8595c0;fill-opacity:.98604647;fill-rule:nonzero;stroke:none;stroke-width:3.78721285" id="rect5241" width="249.995" height="249.995" x="0" y=".005" ry="10.582"/><path style="opacity:1;fill:#536aa6;fill-opacity:1;fill-rule:nonzero;stroke:none;stroke-width:3.57136178" id="rect5214" d="M 126.21137,42.42156 A 83.797934,78.019406 0 0 0 64.661182,67.637345 L 59.276236,62.684849 0,139.55285 V 250 h 142.86145 l 49.8177,-64.59839 -8.97722,-8.25879 A 83.797934,78.019406 0 0 0 210.01282,120.4405 83.797934,78.019406 0 0 0 126.21137,42.42156 Z"/><g id="g4" transform="matrix(4.6198848,-1.8107406,1.8107406,4.6198848,6.8337688,73.385806)" style="fill:#fff"><path id="path2" d="M 18.375,0 C 8.229,0 0,8.227 0,18.375 0,28.523 8.229,36.75 18.375,36.75 28.525,36.75 36.75,28.523 36.75,18.375 36.75,8.227 28.525,0 18.375,0 Z m -0.041,5.157 0.004,-3.275 h 0.002 c 4.422,0 8.547,1.701 11.656,4.787 l -4.613,4.649 C 23.52,9.467 21.045,8.443 18.42,8.431 H 18.334 Z M 1.883,18.402 v -0.027 c 0,-4.39 1.703,-8.521 4.799,-11.632 l 4.643,4.619 C 9.46,13.237 8.432,15.728 8.432,18.375 Z M 18.539,34.869 H 18.375 C 13.98,34.869 9.844,33.16 6.73,30.057 l 4.625,-4.64 c 1.859,1.854 4.324,2.882 6.947,2.901 h 0.086 v 3.274 l 0.312,3.259 z m -0.164,-8.443 c -4.444,0 -8.051,-3.605 -8.051,-8.051 0,-4.447 3.605,-8.051 8.051,-8.051 4.447,0 8.051,3.605 8.051,8.051 0,4.447 -3.604,8.051 -8.051,8.051 z m 11.67,3.606 -4.633,-4.63 c 1.875,-1.877 2.904,-4.372 2.904,-7.026 l 6.553,-0.056 v 0.056 c 0,4.401 -1.713,8.541 -4.824,11.656 z" style="fill:#fff"/></g><g style="opacity:1;fill:#f0f;fill-opacity:1;fill-rule:nonzero;stroke:none" id="g90" transform="translate(18.718848,295.83667)"><mask id="mask76"><use id="use74" width="100%" height="100%" x="0" y="0" xlink:href="#a" style="fill:url(#radialGradient4609);fill-opacity:1"/></mask></g></svg>