<svg xmlns="http://www.w3.org/2000/svg" xmlns:xlink="http://www.w3.org/1999/xlink" width="70" height="70" version="1.1" viewBox="0 0 70 70"><defs><linearGradient id="color-1" x1="70" x2="0" y1="0" y2="70" gradientUnits="userSpaceOnUse"><stop offset="0" stop-color="#ff6c68"/><stop offset="1" stop-color="#e53935"/></linearGradient></defs><g fill="none" fill-rule="nonzero" stroke="none" stroke-dashoffset="0" stroke-linecap="butt" stroke-linejoin="miter" stroke-miterlimit="10" stroke-width="1" font-family="none" font-size="none" font-weight="none" text-anchor="none" style="mix-blend-mode:normal"><path id="box" fill="url(#color-1)" d="M3.5,70c-1.933,0 -3.5,-1.567 -3.5,-3.5v-63c0,-1.933 1.567,-3.5 3.5,-3.5h63c1.933,0 3.5,1.567 3.5,3.5v63c0,1.933 -1.567,3.5 -3.5,3.5z"/><path id="topBoxShadow" fill="#fff" d="M65,1h-61c-1.95033,0 -3.2667,0.63396 -3.9491,1.90189c0.28378,-1.64806 1.72001,-2.90189 3.4491,-2.90189h63c1.72965,0 3.16627,1.25466 3.44938,2.90352c-0.69803,-1.26902 -2.34782,-1.90352 -4.94938,-1.90352z" opacity=".383"/><path id="bottomBoxShadow" fill="#000" d="M4,69h61c2.66667,0 4.33333,-1 5,-3v0.5c0,1.933 -1.567,3.5 -3.5,3.5h-63c-1.933,0 -3.5,-1.567 -3.5,-3.5c0,-0.1611 0,-0.32777 0,-0.5c0.66667,2 2,3 4,3z" opacity=".383"/><path id="shadow" fill="#000" d="M12,16.55545h10.22243v10.22243h-10.22243v-10.22243M27.33333,19.1106v5.11091h30.66667v-5.11091h-30.66667M12,31.88879h10.22243v10.22243h-10.22243v-10.22243M27.33333,34.44393v5.11091h30.66667v-5.11091h-30.66667M12,47.22212h10.22243v10.22243h-10.22243v-10.22243M27.33333,49.77727v5.11091h30.66667v-5.11091z" opacity=".3"/><path id="flatShadow" fill="#000" d="M22.22243,14.55545l0,7.66605l5.11091,-5.11091h30.66667v5.11091l-10.22243,10.22243h10.22243v5.11091l-10.22243,10.22243h10.22243v5.11091l-17.11183,17.11183h-37.38817c-1.933,0 -3.5,-1.567 -3.5,-3.5l0,-39.94455l12,-12z" opacity=".324"/><path id="icon" fill="#fff" d="M12,14.55545h10.22243v10.22243h-10.22243v-10.22243M27.33333,17.1106v5.11091h30.66667v-5.11091h-30.66667M12,29.88879h10.22243v10.22243h-10.22243v-10.22243M27.33333,32.44393v5.11091h30.66667v-5.11091h-30.66667M12,45.22212h10.22243v10.22243h-10.22243v-10.22243M27.33333,47.77727v5.11091h30.66667v-5.11091z"/></g></svg>